<svg width="74" height="74" viewBox="0 0 74 74" fill="none" xmlns="http://www.w3.org/2000/svg">
<path d="M13.875 12.1406L60.125 61.8594ZM60.125 12.1406L13.875 61.8594Z" fill="black"/>
<path d="M13.875 12.1406L60.125 61.8594M60.125 12.1406L13.875 61.8594" stroke="#080A0D" stroke-width="15.6094" stroke-linecap="round" stroke-linejoin="round"/>
<path d="M13.875 12.1406L60.125 61.8594ZM60.125 12.1406L13.875 61.8594Z" fill="black"/>
<path d="M13.875 12.1406L60.125 61.8594M60.125 12.1406L13.875 61.8594" stroke="url(#paint0_linear_2247_16)" stroke-width="10.9844" stroke-linecap="round" stroke-linejoin="round"/>
<path d="M17.9219 16.4766L55.5 57.2344ZM56.0781 16.7656L17.9219 57.2344Z" fill="black"/>
<path d="M17.9219 16.4766L55.5 57.2344M56.0781 16.7656L17.9219 57.2344" stroke="#D6FFF4" stroke-opacity="0.2" stroke-width="1.15625" stroke-linecap="round"/>
<path d="M13.875 14.4531C15.1522 14.4531 16.1875 13.4178 16.1875 12.1406C16.1875 10.8635 15.1522 9.82812 13.875 9.82812C12.5978 9.82812 11.5625 10.8635 11.5625 12.1406C11.5625 13.4178 12.5978 14.4531 13.875 14.4531Z" fill="#9CFFE2"/>
<path d="M60.125 64.1719C61.4022 64.1719 62.4375 63.1365 62.4375 61.8594C62.4375 60.5822 61.4022 59.5469 60.125 59.5469C58.8478 59.5469 57.8125 60.5822 57.8125 61.8594C57.8125 63.1365 58.8478 64.1719 60.125 64.1719Z" fill="#8DEEFF"/>
<path d="M60.125 14.4531C61.4022 14.4531 62.4375 13.4178 62.4375 12.1406C62.4375 10.8635 61.4022 9.82812 60.125 9.82812C58.8478 9.82812 57.8125 10.8635 57.8125 12.1406C57.8125 13.4178 58.8478 14.4531 60.125 14.4531Z" fill="#9CFFE2"/>
<path d="M13.875 64.1719C15.1522 64.1719 16.1875 63.1365 16.1875 61.8594C16.1875 60.5822 15.1522 59.5469 13.875 59.5469C12.5978 59.5469 11.5625 60.5822 11.5625 61.8594C11.5625 63.1365 12.5978 64.1719 13.875 64.1719Z" fill="#8DEEFF"/>
<path d="M37 30.0625L43.9375 37L37 43.9375L30.0625 37L37 30.0625Z" fill="#07100E" stroke="#D5FFF5" stroke-width="1.44531"/>
<defs>
<linearGradient id="paint0_linear_2247_16" x1="15.0313" y1="13.875" x2="58.9687" y2="60.125" gradientUnits="userSpaceOnUse">
<stop stop-color="#20E3A4"/>
<stop offset="1" stop-color="#0FB3D6"/>
</linearGradient>
</defs>
</svg>
